<svg xmlns="http://www.w3.org/2000/svg" viewBox="0 0 49.972 49.972"><g id="Layer_2" data-name="Layer 2"><g id="layout" fill="#9a784e"><path d="M25.811 44.121a38.056 38.056 0 0 1 .815 3.974 2.046 2.046 0 0 1-1.64 1.877 2.046 2.046 0 0 1-1.64-1.877 38.059 38.059 0 0 1 .815-3.974zm-.85-19.061h.022c.1 0 .254.29.177.524s-.132.057-.188.057c-.056 0-.111.177-.188-.057s.077-.525.177-.525zm17.525 15.107a2.046 2.046 0 0 1 .168 2.487 2.046 2.046 0 0 1-2.487-.168 38.063 38.063 0 0 1-2.234-3.386l1.167-1.167a38.06 38.06 0 0 1 3.386 2.234zM39.1 12.039l-1.167-1.167a38.06 38.06 0 0 1 2.234-3.385 2.046 2.046 0 0 1 2.487-.169 2.046 2.046 0 0 1-.168 2.487A38.063 38.063 0 0 1 39.1 12.04zm10.872 12.947a2.046 2.046 0 0 1-1.877 1.64 38.067 38.067 0 0 1-3.974-.815v-1.65a38.06 38.06 0 0 1 3.974-.814 2.046 2.046 0 0 1 1.877 1.64zM7.487 9.805a2.046 2.046 0 0 1-.169-2.487 2.046 2.046 0 0 1 2.487.169 38.057 38.057 0 0 1 2.234 3.385l-1.167 1.167a38.06 38.06 0 0 1-3.385-2.234zM24.161 5.85a38.059 38.059 0 0 1-.814-3.972A2.046 2.046 0 0 1 24.986 0a2.046 2.046 0 0 1 1.64 1.877 38.057 38.057 0 0 1-.815 3.974zM1.877 23.347a38.063 38.063 0 0 1 3.974.814v1.65a38.057 38.057 0 0 1-3.974.815A2.046 2.046 0 0 1 0 24.986a2.046 2.046 0 0 1 1.877-1.64zm8.995 14.586L12.04 39.1a38.063 38.063 0 0 1-2.234 3.386 2.046 2.046 0 0 1-2.487.168 2.046 2.046 0 0 1 .169-2.487 38.06 38.06 0 0 1 3.385-2.234zm13.495-13.378c.26.028.456.049.38.378-.04.168-.141.52-.45.358-.308-.161-.308-.287-.308-.442a.307.307 0 0 1 .378-.294z"/><path d="M11.945 23.996q-.036.49-.037.99c0 .334.013.662.037.989a28.685 28.685 0 0 0 4.12.65h.028a23.255 23.255 0 0 0 3.536-.532 5.441 5.441 0 0 0 .79 1.9 23.171 23.171 0 0 0-2.88 2.123l-.007.007-.003.003-.003.001-.005.008a28.848 28.848 0 0 0-2.452 3.367 12.997 12.997 0 0 0 1.403 1.401 28.681 28.681 0 0 0 3.365-2.45l.008-.007.003-.003.001-.001.007-.008a23.178 23.178 0 0 0 2.123-2.881 5.441 5.441 0 0 0 1.9.79 23.222 23.222 0 0 0-.531 3.537l-.002.01v.007l.002.01a28.742 28.742 0 0 0 .647 4.12q.49.036.99.037c.334 0 .663-.013.99-.037a28.689 28.689 0 0 0 .649-4.12l.001-.01v-.008l-.001-.01a23.222 23.222 0 0 0-.532-3.536 5.441 5.441 0 0 0 1.9-.79 23.34 23.34 0 0 0 2.124 2.88l.006.009.003.001.002.003.008.007a28.813 28.813 0 0 0 3.365 2.45 13.01 13.01 0 0 0 1.403-1.403 28.677 28.677 0 0 0-2.45-3.365l-.007-.008-.003-.001-.002-.003-.008-.007a23.173 23.173 0 0 0-2.88-2.124 5.441 5.441 0 0 0 .79-1.9 23.225 23.225 0 0 0 3.536.532l.01.002h.008l.01-.002a28.743 28.743 0 0 0 4.12-.647q.035-.49.036-.99a13.5 13.5 0 0 0-.036-.99 28.719 28.719 0 0 0-4.12-.649l-.01-.002h-.008l-.01.002a23.224 23.224 0 0 0-3.536.532 5.442 5.442 0 0 0-.79-1.9 23.174 23.174 0 0 0 2.88-2.124l.008-.006.002-.003.003-.002.006-.008a28.668 28.668 0 0 0 2.453-3.368 13.275 13.275 0 0 0-1.402-1.402 28.804 28.804 0 0 0-3.368 2.453l-.008.006-.002.003-.003.002-.006.008a23.338 23.338 0 0 0-2.124 2.88 5.441 5.441 0 0 0-1.9-.79 23.222 23.222 0 0 0 .532-3.536l.001-.01v-.008l-.001-.01a28.782 28.782 0 0 0-.648-4.12q-.49-.035-.99-.036c-.334 0-.662.012-.99.036a28.72 28.72 0 0 0-.648 4.12l-.002.01v.008l.002.01a23.222 23.222 0 0 0 .531 3.536 5.441 5.441 0 0 0-1.9.79 23.177 23.177 0 0 0-2.123-2.88l-.007-.008-.001-.002-.003-.003-.008-.006a28.633 28.633 0 0 0-3.365-2.451 13.013 13.013 0 0 0-1.404 1.403 28.68 28.68 0 0 0 2.451 3.365l.007.008.003.002.003.003.006.006a23.172 23.172 0 0 0 2.881 2.124 5.441 5.441 0 0 0-.79 1.9 23.254 23.254 0 0 0-3.537-.532l-.01-.001h-.007l-.01.001a28.776 28.776 0 0 0-4.12.648zm8.047.99a4.959 4.959 0 0 1 .822-2.741 5.03 5.03 0 0 1 1.43-1.43 4.98 4.98 0 0 1 5.485 0 5 5 0 0 1 2.147 3.159 4.976 4.976 0 0 1-.719 3.753 5.03 5.03 0 0 1-1.43 1.43 4.976 4.976 0 0 1-5.482 0 5.03 5.03 0 0 1-1.43-1.43 4.959 4.959 0 0 1-.823-2.74z"/><path d="M20.484 24.047a4.608 4.608 0 0 0 0 1.879 4.53 4.53 0 0 0 .654 1.578 4.578 4.578 0 0 0 1.33 1.33 4.53 4.53 0 0 0 1.578.654 4.609 4.609 0 0 0 1.88 0 4.53 4.53 0 0 0 1.577-.654 4.578 4.578 0 0 0 1.33-1.33 4.53 4.53 0 0 0 .654-1.578 4.609 4.609 0 0 0 0-1.88 4.53 4.53 0 0 0-.654-1.577 4.578 4.578 0 0 0-1.33-1.33 4.53 4.53 0 0 0-1.578-.654 4.608 4.608 0 0 0-1.879 0 4.53 4.53 0 0 0-1.578.654 4.578 4.578 0 0 0-1.33 1.33 4.53 4.53 0 0 0-.654 1.578zm2.74-.822a.505.505 0 1 1 0-.714.505.505 0 0 1 0 .714zm2.267-1.235a.505.505 0 1 1-.505-.505.505.505 0 0 1 .505.505zm1.986 2.996a.505.505 0 1 1 .505.505.505.505 0 0 1-.505-.505zm-.73 1.761a.505.505 0 1 1 0 .715.505.505 0 0 1 0-.715zm0-4.236a.505.505 0 1 1 0 .714.505.505 0 0 1 0-.714zm-2.266 5.471a.505.505 0 1 1 .505.505.505.505 0 0 1-.505-.505zm-.505-2.291c-.014-.07.035-.091.084-.035a.818.818 0 0 1 .056.357.532.532 0 0 0 .246.38s.063.034.056-.1a.687.687 0 0 1 .007-.155c.009-.018.047-.012.064-.003.06.025.04.171.05.213.002.013.02.009.022-.003.003-.033.005-.066.01-.098a.074.074 0 0 1 .085-.074l.046.01c.059.031.03.163.034.2.002.014.022.02.025.004a1.133 1.133 0 0 1 .03-.144c.013-.027.081-.03.116-.017.045.013.04.074.04.091a.282.282 0 0 0 .012.093.012.012 0 0 0 .023 0 .513.513 0 0 0 .01-.093.335.335 0 0 1 .007-.062c.007-.042.147-.044.157 0l.028.132c.003.016.024.01.025-.003.006-.047-.008-.124-.003-.141a.105.105 0 0 1 .059-.05l.027-.004a.117.117 0 0 1 .074.027l.008.032c.006.032.007.065.01.097.002.012.02.016.023.003a1.323 1.323 0 0 0 .006-.154.088.088 0 0 1 .047-.05l.004-.003a.055.055 0 0 1 .065.018.41.41 0 0 1 .025.135c-.007.133.056.098.056.098a.532.532 0 0 0 .246-.379.818.818 0 0 1 .056-.357c.049-.056.098-.035.084.035s.007.533-.007.652-.33.323-.463.442a.865.865 0 0 1-1.08 0c-.133-.12-.449-.323-.463-.442s.007-.582-.007-.652zm-.365-.695c.007-.217.078-.4.078-.497 0-.099-.014-.183-.021-.274a.903.903 0 0 1 .154-.708 1.565 1.565 0 0 1 2.328 0 .903.903 0 0 1 .155.708c-.007.091-.021.175-.021.274 0 .098.07.28.077.497a.689.689 0 0 1-.253.45 2.06 2.06 0 0 0-.428.28 1.461 1.461 0 0 0-.169.32.05.05 0 0 1-.04.025c-.018 0-.048 0-.055-.024-.006-.022 0-.092-.009-.131-.003-.013-.021-.009-.022.003-.004.033-.005.065-.011.097l-.006.024a.137.137 0 0 1-.054.067.079.079 0 0 1-.095-.032c-.007-.023-.005-.07-.01-.11-.001-.014-.022-.02-.025-.004-.01.05-.026.134-.032.152-.006.017-.036.032-.064.04a.088.088 0 0 1-.09-.035l-.006-.045a.526.526 0 0 0-.01-.093.012.012 0 0 0-.023 0 .28.28 0 0 0-.011.093.139.139 0 0 1-.02.07.094.094 0 0 1-.068.009c-.032-.005-.062-.021-.067-.042a7.832 7.832 0 0 1-.031-.149c-.004-.015-.024-.01-.026.003a.978.978 0 0 0 .002.13c0 .017-.032.028-.056.025l-.042-.011-.011-.007a.159.159 0 0 1-.05-.058l-.007-.026c-.006-.032-.008-.065-.011-.098-.001-.012-.02-.016-.023-.003-.009.038-.004.117-.01.127a.033.033 0 0 1-.03.017.081.081 0 0 1-.042-.014.06.06 0 0 1-.033-.052.568.568 0 0 0-.131-.268 2.055 2.055 0 0 0-.428-.28.689.689 0 0 1-.253-.45zm-1.1 1.751a.505.505 0 1 1 0 .715.505.505 0 0 1 0-.715zm-1.026-1.76a.505.505 0 1 1 .505.504.505.505 0 0 1-.505-.505z"/><path d="M25.605 24.555a.307.307 0 0 1 .379.294c0 .155 0 .28-.31.442-.308.161-.409-.19-.448-.358-.077-.33.12-.35.379-.378z"/><path d="M9.175 21.686a16.199 16.199 0 0 0 0 6.6 15.863 15.863 0 0 0 2.297 5.543 16.197 16.197 0 0 0 4.673 4.671 15.831 15.831 0 0 0 5.54 2.297 16.273 16.273 0 0 0 6.6 0 15.843 15.843 0 0 0 5.542-2.297 16.183 16.183 0 0 0 4.673-4.673 15.844 15.844 0 0 0 2.296-5.54 16.199 16.199 0 0 0 0-6.6 15.844 15.844 0 0 0-2.296-5.542 16.203 16.203 0 0 0-4.673-4.673 15.843 15.843 0 0 0-5.541-2.297 16.199 16.199 0 0 0-6.6 0 15.831 15.831 0 0 0-5.541 2.297 16.203 16.203 0 0 0-4.673 4.673 15.843 15.843 0 0 0-2.297 5.541zm30.423 3.3a.59.59 0 0 1 .43-.568.548.548 0 0 1 .162-.024.592.592 0 0 1 0 1.184.305.305 0 0 1-.038-.001.591.591 0 0 1-.554-.59zM14.654 14.655a.591.591 0 0 1-.706.097.577.577 0 0 1-.13-.097.592.592 0 0 1 .836-.838l.026.028a.594.594 0 0 1-.026.81zm10.924-4.873a.304.304 0 0 1-.002.038.591.591 0 0 1-1.158.124.548.548 0 0 1-.024-.162.592.592 0 0 1 1.184 0zm10.577 4.873l-.028.025a.592.592 0 0 1-.908-.732.614.614 0 0 1 .1-.131.592.592 0 0 1 .836.838zm-.836 20.663a.59.59 0 0 1 .705-.099.56.56 0 0 1 .131.099.592.592 0 1 1-.836.838l-.027-.029a.592.592 0 0 1 .027-.81zm-10.925 4.871a.304.304 0 0 1 .001-.038.591.591 0 0 1 1.159-.122.538.538 0 0 1 .024.16.592.592 0 1 1-1.184 0zm-10.576-4.871c.01-.008.017-.018.027-.026h.001a.59.59 0 0 1 .907.732.56.56 0 0 1-.099.132.592.592 0 1 1-.836-.838zm-2.334-10.332c0-.308.012-.614.032-.916a13.521 13.521 0 0 1 12.555-12.553 13.391 13.391 0 0 1 1.83 0 13.432 13.432 0 0 1 7.958 3.301 13.14 13.14 0 0 1 1.295 1.297 13.436 13.436 0 0 1 3.301 7.957 13.39 13.39 0 0 1 0 1.83 13.428 13.428 0 0 1-3.303 7.957 13.284 13.284 0 0 1-1.293 1.295 13.432 13.432 0 0 1-7.959 3.302 13.391 13.391 0 0 1-1.829 0 13.432 13.432 0 0 1-7.958-3.303 13.097 13.097 0 0 1-1.294-1.294 13.432 13.432 0 0 1-3.303-7.959 13.39 13.39 0 0 1-.032-.914zm-2.293 0a.592.592 0 0 1 .592-.592.305.305 0 0 1 .038.002.591.591 0 0 1 .122 1.158.537.537 0 0 1-.16.024.592.592 0 0 1-.592-.592z"/><path d="M6.265 24.215v1.542a5.356 5.356 0 0 1 2.026.327 16.646 16.646 0 0 0 4.117 9.924 5.36 5.36 0 0 1-1.205 1.67l1.09 1.09a5.36 5.36 0 0 1 1.672-1.204 16.638 16.638 0 0 0 9.923 4.118 5.356 5.356 0 0 1 .327 2.025h1.542a5.356 5.356 0 0 1 .327-2.025 16.639 16.639 0 0 0 9.924-4.117 5.36 5.36 0 0 1 1.67 1.204l1.09-1.09a5.36 5.36 0 0 1-1.203-1.67 16.639 16.639 0 0 0 4.117-9.925 5.356 5.356 0 0 1 2.025-.327v-1.542a5.356 5.356 0 0 1-2.025-.327 16.639 16.639 0 0 0-4.118-9.924 5.36 5.36 0 0 1 1.205-1.67l-1.09-1.09a5.36 5.36 0 0 1-1.67 1.204 16.639 16.639 0 0 0-9.925-4.118 5.356 5.356 0 0 1-.327-2.025h-1.542a5.356 5.356 0 0 1-.327 2.025 16.638 16.638 0 0 0-9.923 4.118 5.36 5.36 0 0 1-1.671-1.205l-1.09 1.09a5.361 5.361 0 0 1 1.204 1.672 16.646 16.646 0 0 0-4.117 9.923 5.356 5.356 0 0 1-2.026.327zm2.412.771a16.361 16.361 0 0 1 .342-3.333 16.02 16.02 0 0 1 2.321-5.595 16.311 16.311 0 0 1 4.717-4.718 16.02 16.02 0 0 1 5.595-2.32 16.423 16.423 0 0 1 6.665 0 16.016 16.016 0 0 1 5.597 2.32 16.33 16.33 0 0 1 4.717 4.718 16.02 16.02 0 0 1 2.321 5.595 16.374 16.374 0 0 1 0 6.666 16.02 16.02 0 0 1-2.32 5.596 16.33 16.33 0 0 1-4.718 4.717 16.02 16.02 0 0 1-5.595 2.32 16.375 16.375 0 0 1-6.667 0 16.02 16.02 0 0 1-5.595-2.32 16.311 16.311 0 0 1-4.717-4.717 16.02 16.02 0 0 1-2.32-5.596 16.362 16.362 0 0 1-.343-3.333z"/></g></g></svg>